%TF.GenerationSoftware,KiCad,Pcbnew,9.0.0*%
%TF.CreationDate,2025-04-02T21:11:46+02:00*%
%TF.ProjectId,NE555_Blinking_LED_0.2,4e453535-355f-4426-9c69-6e6b696e675f,v0.2*%
%TF.SameCoordinates,Original*%
%TF.FileFunction,Legend,Top*%
%TF.FilePolarity,Positive*%
%FSLAX46Y46*%
G04 Gerber Fmt 4.6, Leading zero omitted, Abs format (unit mm)*
G04 Created by KiCad (PCBNEW 9.0.0) date 2025-04-02 21:11:46*
%MOMM*%
%LPD*%
G01*
G04 APERTURE LIST*
%ADD10C,0.080000*%
%ADD11C,0.150000*%
%ADD12C,0.120000*%
G04 APERTURE END LIST*
D10*
X71103583Y-52208515D02*
X71055964Y-52184705D01*
X71055964Y-52184705D02*
X70984535Y-52184705D01*
X70984535Y-52184705D02*
X70913107Y-52208515D01*
X70913107Y-52208515D02*
X70865488Y-52256134D01*
X70865488Y-52256134D02*
X70841678Y-52303753D01*
X70841678Y-52303753D02*
X70817869Y-52398991D01*
X70817869Y-52398991D02*
X70817869Y-52470419D01*
X70817869Y-52470419D02*
X70841678Y-52565657D01*
X70841678Y-52565657D02*
X70865488Y-52613276D01*
X70865488Y-52613276D02*
X70913107Y-52660896D01*
X70913107Y-52660896D02*
X70984535Y-52684705D01*
X70984535Y-52684705D02*
X71032154Y-52684705D01*
X71032154Y-52684705D02*
X71103583Y-52660896D01*
X71103583Y-52660896D02*
X71127392Y-52637086D01*
X71127392Y-52637086D02*
X71127392Y-52470419D01*
X71127392Y-52470419D02*
X71032154Y-52470419D01*
X71341678Y-52684705D02*
X71341678Y-52351372D01*
X71341678Y-52446610D02*
X71365488Y-52398991D01*
X71365488Y-52398991D02*
X71389297Y-52375181D01*
X71389297Y-52375181D02*
X71436916Y-52351372D01*
X71436916Y-52351372D02*
X71484535Y-52351372D01*
X71722631Y-52684705D02*
X71675012Y-52660896D01*
X71675012Y-52660896D02*
X71651202Y-52637086D01*
X71651202Y-52637086D02*
X71627393Y-52589467D01*
X71627393Y-52589467D02*
X71627393Y-52446610D01*
X71627393Y-52446610D02*
X71651202Y-52398991D01*
X71651202Y-52398991D02*
X71675012Y-52375181D01*
X71675012Y-52375181D02*
X71722631Y-52351372D01*
X71722631Y-52351372D02*
X71794059Y-52351372D01*
X71794059Y-52351372D02*
X71841678Y-52375181D01*
X71841678Y-52375181D02*
X71865488Y-52398991D01*
X71865488Y-52398991D02*
X71889297Y-52446610D01*
X71889297Y-52446610D02*
X71889297Y-52589467D01*
X71889297Y-52589467D02*
X71865488Y-52637086D01*
X71865488Y-52637086D02*
X71841678Y-52660896D01*
X71841678Y-52660896D02*
X71794059Y-52684705D01*
X71794059Y-52684705D02*
X71722631Y-52684705D01*
X72317869Y-52351372D02*
X72317869Y-52684705D01*
X72103583Y-52351372D02*
X72103583Y-52613276D01*
X72103583Y-52613276D02*
X72127393Y-52660896D01*
X72127393Y-52660896D02*
X72175012Y-52684705D01*
X72175012Y-52684705D02*
X72246440Y-52684705D01*
X72246440Y-52684705D02*
X72294059Y-52660896D01*
X72294059Y-52660896D02*
X72317869Y-52637086D01*
X72555964Y-52351372D02*
X72555964Y-52851372D01*
X72555964Y-52375181D02*
X72603583Y-52351372D01*
X72603583Y-52351372D02*
X72698821Y-52351372D01*
X72698821Y-52351372D02*
X72746440Y-52375181D01*
X72746440Y-52375181D02*
X72770250Y-52398991D01*
X72770250Y-52398991D02*
X72794059Y-52446610D01*
X72794059Y-52446610D02*
X72794059Y-52589467D01*
X72794059Y-52589467D02*
X72770250Y-52637086D01*
X72770250Y-52637086D02*
X72746440Y-52660896D01*
X72746440Y-52660896D02*
X72698821Y-52684705D01*
X72698821Y-52684705D02*
X72603583Y-52684705D01*
X72603583Y-52684705D02*
X72555964Y-52660896D01*
X73555964Y-52422800D02*
X73627392Y-52446610D01*
X73627392Y-52446610D02*
X73651202Y-52470419D01*
X73651202Y-52470419D02*
X73675011Y-52518038D01*
X73675011Y-52518038D02*
X73675011Y-52589467D01*
X73675011Y-52589467D02*
X73651202Y-52637086D01*
X73651202Y-52637086D02*
X73627392Y-52660896D01*
X73627392Y-52660896D02*
X73579773Y-52684705D01*
X73579773Y-52684705D02*
X73389297Y-52684705D01*
X73389297Y-52684705D02*
X73389297Y-52184705D01*
X73389297Y-52184705D02*
X73555964Y-52184705D01*
X73555964Y-52184705D02*
X73603583Y-52208515D01*
X73603583Y-52208515D02*
X73627392Y-52232324D01*
X73627392Y-52232324D02*
X73651202Y-52279943D01*
X73651202Y-52279943D02*
X73651202Y-52327562D01*
X73651202Y-52327562D02*
X73627392Y-52375181D01*
X73627392Y-52375181D02*
X73603583Y-52398991D01*
X73603583Y-52398991D02*
X73555964Y-52422800D01*
X73555964Y-52422800D02*
X73389297Y-52422800D01*
X70841678Y-53489677D02*
X70841678Y-52989677D01*
X70841678Y-52989677D02*
X71127392Y-53489677D01*
X71127392Y-53489677D02*
X71127392Y-52989677D01*
X71579774Y-53489677D02*
X71579774Y-53227772D01*
X71579774Y-53227772D02*
X71555964Y-53180153D01*
X71555964Y-53180153D02*
X71508345Y-53156344D01*
X71508345Y-53156344D02*
X71413107Y-53156344D01*
X71413107Y-53156344D02*
X71365488Y-53180153D01*
X71579774Y-53465868D02*
X71532155Y-53489677D01*
X71532155Y-53489677D02*
X71413107Y-53489677D01*
X71413107Y-53489677D02*
X71365488Y-53465868D01*
X71365488Y-53465868D02*
X71341679Y-53418248D01*
X71341679Y-53418248D02*
X71341679Y-53370629D01*
X71341679Y-53370629D02*
X71365488Y-53323010D01*
X71365488Y-53323010D02*
X71413107Y-53299201D01*
X71413107Y-53299201D02*
X71532155Y-53299201D01*
X71532155Y-53299201D02*
X71579774Y-53275391D01*
X71817869Y-53489677D02*
X71817869Y-53156344D01*
X71817869Y-53203963D02*
X71841679Y-53180153D01*
X71841679Y-53180153D02*
X71889298Y-53156344D01*
X71889298Y-53156344D02*
X71960726Y-53156344D01*
X71960726Y-53156344D02*
X72008345Y-53180153D01*
X72008345Y-53180153D02*
X72032155Y-53227772D01*
X72032155Y-53227772D02*
X72032155Y-53489677D01*
X72032155Y-53227772D02*
X72055964Y-53180153D01*
X72055964Y-53180153D02*
X72103583Y-53156344D01*
X72103583Y-53156344D02*
X72175012Y-53156344D01*
X72175012Y-53156344D02*
X72222631Y-53180153D01*
X72222631Y-53180153D02*
X72246441Y-53227772D01*
X72246441Y-53227772D02*
X72246441Y-53489677D01*
X72675012Y-53465868D02*
X72627393Y-53489677D01*
X72627393Y-53489677D02*
X72532155Y-53489677D01*
X72532155Y-53489677D02*
X72484536Y-53465868D01*
X72484536Y-53465868D02*
X72460727Y-53418248D01*
X72460727Y-53418248D02*
X72460727Y-53227772D01*
X72460727Y-53227772D02*
X72484536Y-53180153D01*
X72484536Y-53180153D02*
X72532155Y-53156344D01*
X72532155Y-53156344D02*
X72627393Y-53156344D01*
X72627393Y-53156344D02*
X72675012Y-53180153D01*
X72675012Y-53180153D02*
X72698822Y-53227772D01*
X72698822Y-53227772D02*
X72698822Y-53275391D01*
X72698822Y-53275391D02*
X72460727Y-53323010D01*
X72913107Y-53442058D02*
X72936917Y-53465868D01*
X72936917Y-53465868D02*
X72913107Y-53489677D01*
X72913107Y-53489677D02*
X72889298Y-53465868D01*
X72889298Y-53465868D02*
X72913107Y-53442058D01*
X72913107Y-53442058D02*
X72913107Y-53489677D01*
X72913107Y-53180153D02*
X72936917Y-53203963D01*
X72936917Y-53203963D02*
X72913107Y-53227772D01*
X72913107Y-53227772D02*
X72889298Y-53203963D01*
X72889298Y-53203963D02*
X72913107Y-53180153D01*
X72913107Y-53180153D02*
X72913107Y-53227772D01*
X73508345Y-53346820D02*
X73746440Y-53346820D01*
X73460726Y-53489677D02*
X73627392Y-52989677D01*
X73627392Y-52989677D02*
X73794059Y-53489677D01*
X74175011Y-53156344D02*
X74175011Y-53561106D01*
X74175011Y-53561106D02*
X74151201Y-53608725D01*
X74151201Y-53608725D02*
X74127392Y-53632534D01*
X74127392Y-53632534D02*
X74079773Y-53656344D01*
X74079773Y-53656344D02*
X74008344Y-53656344D01*
X74008344Y-53656344D02*
X73960725Y-53632534D01*
X74175011Y-53465868D02*
X74127392Y-53489677D01*
X74127392Y-53489677D02*
X74032154Y-53489677D01*
X74032154Y-53489677D02*
X73984535Y-53465868D01*
X73984535Y-53465868D02*
X73960725Y-53442058D01*
X73960725Y-53442058D02*
X73936916Y-53394439D01*
X73936916Y-53394439D02*
X73936916Y-53251582D01*
X73936916Y-53251582D02*
X73960725Y-53203963D01*
X73960725Y-53203963D02*
X73984535Y-53180153D01*
X73984535Y-53180153D02*
X74032154Y-53156344D01*
X74032154Y-53156344D02*
X74127392Y-53156344D01*
X74127392Y-53156344D02*
X74175011Y-53180153D01*
X74413106Y-53489677D02*
X74413106Y-53156344D01*
X74413106Y-52989677D02*
X74389297Y-53013487D01*
X74389297Y-53013487D02*
X74413106Y-53037296D01*
X74413106Y-53037296D02*
X74436916Y-53013487D01*
X74436916Y-53013487D02*
X74413106Y-52989677D01*
X74413106Y-52989677D02*
X74413106Y-53037296D01*
X74722630Y-53489677D02*
X74675011Y-53465868D01*
X74675011Y-53465868D02*
X74651201Y-53418248D01*
X74651201Y-53418248D02*
X74651201Y-52989677D01*
X75127392Y-53489677D02*
X75127392Y-53227772D01*
X75127392Y-53227772D02*
X75103582Y-53180153D01*
X75103582Y-53180153D02*
X75055963Y-53156344D01*
X75055963Y-53156344D02*
X74960725Y-53156344D01*
X74960725Y-53156344D02*
X74913106Y-53180153D01*
X75127392Y-53465868D02*
X75079773Y-53489677D01*
X75079773Y-53489677D02*
X74960725Y-53489677D01*
X74960725Y-53489677D02*
X74913106Y-53465868D01*
X74913106Y-53465868D02*
X74889297Y-53418248D01*
X74889297Y-53418248D02*
X74889297Y-53370629D01*
X74889297Y-53370629D02*
X74913106Y-53323010D01*
X74913106Y-53323010D02*
X74960725Y-53299201D01*
X74960725Y-53299201D02*
X75079773Y-53299201D01*
X75079773Y-53299201D02*
X75127392Y-53275391D01*
X75365487Y-53156344D02*
X75365487Y-53489677D01*
X75365487Y-53203963D02*
X75389297Y-53180153D01*
X75389297Y-53180153D02*
X75436916Y-53156344D01*
X75436916Y-53156344D02*
X75508344Y-53156344D01*
X75508344Y-53156344D02*
X75555963Y-53180153D01*
X75555963Y-53180153D02*
X75579773Y-53227772D01*
X75579773Y-53227772D02*
X75579773Y-53489677D01*
X76127392Y-52989677D02*
X76294058Y-53489677D01*
X76294058Y-53489677D02*
X76460725Y-52989677D01*
X76984534Y-53465868D02*
X77055962Y-53489677D01*
X77055962Y-53489677D02*
X77175010Y-53489677D01*
X77175010Y-53489677D02*
X77222629Y-53465868D01*
X77222629Y-53465868D02*
X77246438Y-53442058D01*
X77246438Y-53442058D02*
X77270248Y-53394439D01*
X77270248Y-53394439D02*
X77270248Y-53346820D01*
X77270248Y-53346820D02*
X77246438Y-53299201D01*
X77246438Y-53299201D02*
X77222629Y-53275391D01*
X77222629Y-53275391D02*
X77175010Y-53251582D01*
X77175010Y-53251582D02*
X77079772Y-53227772D01*
X77079772Y-53227772D02*
X77032153Y-53203963D01*
X77032153Y-53203963D02*
X77008343Y-53180153D01*
X77008343Y-53180153D02*
X76984534Y-53132534D01*
X76984534Y-53132534D02*
X76984534Y-53084915D01*
X76984534Y-53084915D02*
X77008343Y-53037296D01*
X77008343Y-53037296D02*
X77032153Y-53013487D01*
X77032153Y-53013487D02*
X77079772Y-52989677D01*
X77079772Y-52989677D02*
X77198819Y-52989677D01*
X77198819Y-52989677D02*
X77270248Y-53013487D01*
X70817869Y-54270840D02*
X70889297Y-54294649D01*
X70889297Y-54294649D02*
X71008345Y-54294649D01*
X71008345Y-54294649D02*
X71055964Y-54270840D01*
X71055964Y-54270840D02*
X71079773Y-54247030D01*
X71079773Y-54247030D02*
X71103583Y-54199411D01*
X71103583Y-54199411D02*
X71103583Y-54151792D01*
X71103583Y-54151792D02*
X71079773Y-54104173D01*
X71079773Y-54104173D02*
X71055964Y-54080363D01*
X71055964Y-54080363D02*
X71008345Y-54056554D01*
X71008345Y-54056554D02*
X70913107Y-54032744D01*
X70913107Y-54032744D02*
X70865488Y-54008935D01*
X70865488Y-54008935D02*
X70841678Y-53985125D01*
X70841678Y-53985125D02*
X70817869Y-53937506D01*
X70817869Y-53937506D02*
X70817869Y-53889887D01*
X70817869Y-53889887D02*
X70841678Y-53842268D01*
X70841678Y-53842268D02*
X70865488Y-53818459D01*
X70865488Y-53818459D02*
X70913107Y-53794649D01*
X70913107Y-53794649D02*
X71032154Y-53794649D01*
X71032154Y-53794649D02*
X71103583Y-53818459D01*
X71246440Y-53961316D02*
X71436916Y-53961316D01*
X71317868Y-53794649D02*
X71317868Y-54223220D01*
X71317868Y-54223220D02*
X71341678Y-54270840D01*
X71341678Y-54270840D02*
X71389297Y-54294649D01*
X71389297Y-54294649D02*
X71436916Y-54294649D01*
X71603582Y-54294649D02*
X71603582Y-53794649D01*
X71603582Y-53794649D02*
X71889296Y-54294649D01*
X71889296Y-54294649D02*
X71889296Y-53794649D01*
X72127392Y-54294649D02*
X72127392Y-53961316D01*
X72127392Y-54056554D02*
X72151202Y-54008935D01*
X72151202Y-54008935D02*
X72175011Y-53985125D01*
X72175011Y-53985125D02*
X72222630Y-53961316D01*
X72222630Y-53961316D02*
X72270249Y-53961316D01*
X72436916Y-54247030D02*
X72460726Y-54270840D01*
X72460726Y-54270840D02*
X72436916Y-54294649D01*
X72436916Y-54294649D02*
X72413107Y-54270840D01*
X72413107Y-54270840D02*
X72436916Y-54247030D01*
X72436916Y-54247030D02*
X72436916Y-54294649D01*
X72436916Y-53985125D02*
X72460726Y-54008935D01*
X72460726Y-54008935D02*
X72436916Y-54032744D01*
X72436916Y-54032744D02*
X72413107Y-54008935D01*
X72413107Y-54008935D02*
X72436916Y-53985125D01*
X72436916Y-53985125D02*
X72436916Y-54032744D01*
X73317868Y-54294649D02*
X73032154Y-54294649D01*
X73175011Y-54294649D02*
X73175011Y-53794649D01*
X73175011Y-53794649D02*
X73127392Y-53866078D01*
X73127392Y-53866078D02*
X73079773Y-53913697D01*
X73079773Y-53913697D02*
X73032154Y-53937506D01*
X73794058Y-54294649D02*
X73508344Y-54294649D01*
X73651201Y-54294649D02*
X73651201Y-53794649D01*
X73651201Y-53794649D02*
X73603582Y-53866078D01*
X73603582Y-53866078D02*
X73555963Y-53913697D01*
X73555963Y-53913697D02*
X73508344Y-53937506D01*
X73960724Y-53794649D02*
X74270248Y-53794649D01*
X74270248Y-53794649D02*
X74103581Y-53985125D01*
X74103581Y-53985125D02*
X74175010Y-53985125D01*
X74175010Y-53985125D02*
X74222629Y-54008935D01*
X74222629Y-54008935D02*
X74246438Y-54032744D01*
X74246438Y-54032744D02*
X74270248Y-54080363D01*
X74270248Y-54080363D02*
X74270248Y-54199411D01*
X74270248Y-54199411D02*
X74246438Y-54247030D01*
X74246438Y-54247030D02*
X74222629Y-54270840D01*
X74222629Y-54270840D02*
X74175010Y-54294649D01*
X74175010Y-54294649D02*
X74032153Y-54294649D01*
X74032153Y-54294649D02*
X73984534Y-54270840D01*
X73984534Y-54270840D02*
X73960724Y-54247030D01*
X74436914Y-53794649D02*
X74770247Y-53794649D01*
X74770247Y-53794649D02*
X74555962Y-54294649D01*
X74984533Y-54294649D02*
X75079771Y-54294649D01*
X75079771Y-54294649D02*
X75127390Y-54270840D01*
X75127390Y-54270840D02*
X75151199Y-54247030D01*
X75151199Y-54247030D02*
X75198818Y-54175601D01*
X75198818Y-54175601D02*
X75222628Y-54080363D01*
X75222628Y-54080363D02*
X75222628Y-53889887D01*
X75222628Y-53889887D02*
X75198818Y-53842268D01*
X75198818Y-53842268D02*
X75175009Y-53818459D01*
X75175009Y-53818459D02*
X75127390Y-53794649D01*
X75127390Y-53794649D02*
X75032152Y-53794649D01*
X75032152Y-53794649D02*
X74984533Y-53818459D01*
X74984533Y-53818459D02*
X74960723Y-53842268D01*
X74960723Y-53842268D02*
X74936914Y-53889887D01*
X74936914Y-53889887D02*
X74936914Y-54008935D01*
X74936914Y-54008935D02*
X74960723Y-54056554D01*
X74960723Y-54056554D02*
X74984533Y-54080363D01*
X74984533Y-54080363D02*
X75032152Y-54104173D01*
X75032152Y-54104173D02*
X75127390Y-54104173D01*
X75127390Y-54104173D02*
X75175009Y-54080363D01*
X75175009Y-54080363D02*
X75198818Y-54056554D01*
X75198818Y-54056554D02*
X75222628Y-54008935D01*
X75389294Y-53794649D02*
X75698818Y-53794649D01*
X75698818Y-53794649D02*
X75532151Y-53985125D01*
X75532151Y-53985125D02*
X75603580Y-53985125D01*
X75603580Y-53985125D02*
X75651199Y-54008935D01*
X75651199Y-54008935D02*
X75675008Y-54032744D01*
X75675008Y-54032744D02*
X75698818Y-54080363D01*
X75698818Y-54080363D02*
X75698818Y-54199411D01*
X75698818Y-54199411D02*
X75675008Y-54247030D01*
X75675008Y-54247030D02*
X75651199Y-54270840D01*
X75651199Y-54270840D02*
X75603580Y-54294649D01*
X75603580Y-54294649D02*
X75460723Y-54294649D01*
X75460723Y-54294649D02*
X75413104Y-54270840D01*
X75413104Y-54270840D02*
X75389294Y-54247030D01*
X76127389Y-53794649D02*
X76032151Y-53794649D01*
X76032151Y-53794649D02*
X75984532Y-53818459D01*
X75984532Y-53818459D02*
X75960722Y-53842268D01*
X75960722Y-53842268D02*
X75913103Y-53913697D01*
X75913103Y-53913697D02*
X75889294Y-54008935D01*
X75889294Y-54008935D02*
X75889294Y-54199411D01*
X75889294Y-54199411D02*
X75913103Y-54247030D01*
X75913103Y-54247030D02*
X75936913Y-54270840D01*
X75936913Y-54270840D02*
X75984532Y-54294649D01*
X75984532Y-54294649D02*
X76079770Y-54294649D01*
X76079770Y-54294649D02*
X76127389Y-54270840D01*
X76127389Y-54270840D02*
X76151198Y-54247030D01*
X76151198Y-54247030D02*
X76175008Y-54199411D01*
X76175008Y-54199411D02*
X76175008Y-54080363D01*
X76175008Y-54080363D02*
X76151198Y-54032744D01*
X76151198Y-54032744D02*
X76127389Y-54008935D01*
X76127389Y-54008935D02*
X76079770Y-53985125D01*
X76079770Y-53985125D02*
X75984532Y-53985125D01*
X75984532Y-53985125D02*
X75936913Y-54008935D01*
X75936913Y-54008935D02*
X75913103Y-54032744D01*
X75913103Y-54032744D02*
X75889294Y-54080363D01*
D11*
X78726666Y-51954819D02*
X78726666Y-52669104D01*
X78726666Y-52669104D02*
X78679047Y-52811961D01*
X78679047Y-52811961D02*
X78583809Y-52907200D01*
X78583809Y-52907200D02*
X78440952Y-52954819D01*
X78440952Y-52954819D02*
X78345714Y-52954819D01*
X79726666Y-52954819D02*
X79155238Y-52954819D01*
X79440952Y-52954819D02*
X79440952Y-51954819D01*
X79440952Y-51954819D02*
X79345714Y-52097676D01*
X79345714Y-52097676D02*
X79250476Y-52192914D01*
X79250476Y-52192914D02*
X79155238Y-52240533D01*
X72261905Y-56634819D02*
X72261905Y-55634819D01*
X72261905Y-55634819D02*
X72500000Y-55634819D01*
X72500000Y-55634819D02*
X72642857Y-55682438D01*
X72642857Y-55682438D02*
X72738095Y-55777676D01*
X72738095Y-55777676D02*
X72785714Y-55872914D01*
X72785714Y-55872914D02*
X72833333Y-56063390D01*
X72833333Y-56063390D02*
X72833333Y-56206247D01*
X72833333Y-56206247D02*
X72785714Y-56396723D01*
X72785714Y-56396723D02*
X72738095Y-56491961D01*
X72738095Y-56491961D02*
X72642857Y-56587200D01*
X72642857Y-56587200D02*
X72500000Y-56634819D01*
X72500000Y-56634819D02*
X72261905Y-56634819D01*
X73785714Y-56634819D02*
X73214286Y-56634819D01*
X73500000Y-56634819D02*
X73500000Y-55634819D01*
X73500000Y-55634819D02*
X73404762Y-55777676D01*
X73404762Y-55777676D02*
X73309524Y-55872914D01*
X73309524Y-55872914D02*
X73214286Y-55920533D01*
X81443095Y-57584819D02*
X81443095Y-58394342D01*
X81443095Y-58394342D02*
X81490714Y-58489580D01*
X81490714Y-58489580D02*
X81538333Y-58537200D01*
X81538333Y-58537200D02*
X81633571Y-58584819D01*
X81633571Y-58584819D02*
X81824047Y-58584819D01*
X81824047Y-58584819D02*
X81919285Y-58537200D01*
X81919285Y-58537200D02*
X81966904Y-58489580D01*
X81966904Y-58489580D02*
X82014523Y-58394342D01*
X82014523Y-58394342D02*
X82014523Y-57584819D01*
X83014523Y-58584819D02*
X82443095Y-58584819D01*
X82728809Y-58584819D02*
X82728809Y-57584819D01*
X82728809Y-57584819D02*
X82633571Y-57727676D01*
X82633571Y-57727676D02*
X82538333Y-57822914D01*
X82538333Y-57822914D02*
X82443095Y-57870533D01*
X99738095Y-68124819D02*
X100309523Y-68124819D01*
X100023809Y-69124819D02*
X100023809Y-68124819D01*
X100642857Y-69124819D02*
X100642857Y-68124819D01*
X100642857Y-68124819D02*
X101023809Y-68124819D01*
X101023809Y-68124819D02*
X101119047Y-68172438D01*
X101119047Y-68172438D02*
X101166666Y-68220057D01*
X101166666Y-68220057D02*
X101214285Y-68315295D01*
X101214285Y-68315295D02*
X101214285Y-68458152D01*
X101214285Y-68458152D02*
X101166666Y-68553390D01*
X101166666Y-68553390D02*
X101119047Y-68601009D01*
X101119047Y-68601009D02*
X101023809Y-68648628D01*
X101023809Y-68648628D02*
X100642857Y-68648628D01*
X101595238Y-68220057D02*
X101642857Y-68172438D01*
X101642857Y-68172438D02*
X101738095Y-68124819D01*
X101738095Y-68124819D02*
X101976190Y-68124819D01*
X101976190Y-68124819D02*
X102071428Y-68172438D01*
X102071428Y-68172438D02*
X102119047Y-68220057D01*
X102119047Y-68220057D02*
X102166666Y-68315295D01*
X102166666Y-68315295D02*
X102166666Y-68410533D01*
X102166666Y-68410533D02*
X102119047Y-68553390D01*
X102119047Y-68553390D02*
X101547619Y-69124819D01*
X101547619Y-69124819D02*
X102166666Y-69124819D01*
X65478095Y-60184819D02*
X66049523Y-60184819D01*
X65763809Y-61184819D02*
X65763809Y-60184819D01*
X66382857Y-61184819D02*
X66382857Y-60184819D01*
X66382857Y-60184819D02*
X66763809Y-60184819D01*
X66763809Y-60184819D02*
X66859047Y-60232438D01*
X66859047Y-60232438D02*
X66906666Y-60280057D01*
X66906666Y-60280057D02*
X66954285Y-60375295D01*
X66954285Y-60375295D02*
X66954285Y-60518152D01*
X66954285Y-60518152D02*
X66906666Y-60613390D01*
X66906666Y-60613390D02*
X66859047Y-60661009D01*
X66859047Y-60661009D02*
X66763809Y-60708628D01*
X66763809Y-60708628D02*
X66382857Y-60708628D01*
X67906666Y-61184819D02*
X67335238Y-61184819D01*
X67620952Y-61184819D02*
X67620952Y-60184819D01*
X67620952Y-60184819D02*
X67525714Y-60327676D01*
X67525714Y-60327676D02*
X67430476Y-60422914D01*
X67430476Y-60422914D02*
X67335238Y-60470533D01*
X84833333Y-71084819D02*
X84500000Y-70608628D01*
X84261905Y-71084819D02*
X84261905Y-70084819D01*
X84261905Y-70084819D02*
X84642857Y-70084819D01*
X84642857Y-70084819D02*
X84738095Y-70132438D01*
X84738095Y-70132438D02*
X84785714Y-70180057D01*
X84785714Y-70180057D02*
X84833333Y-70275295D01*
X84833333Y-70275295D02*
X84833333Y-70418152D01*
X84833333Y-70418152D02*
X84785714Y-70513390D01*
X84785714Y-70513390D02*
X84738095Y-70561009D01*
X84738095Y-70561009D02*
X84642857Y-70608628D01*
X84642857Y-70608628D02*
X84261905Y-70608628D01*
X85690476Y-70418152D02*
X85690476Y-71084819D01*
X85452381Y-70037200D02*
X85214286Y-70751485D01*
X85214286Y-70751485D02*
X85833333Y-70751485D01*
X97264819Y-66186666D02*
X96788628Y-66519999D01*
X97264819Y-66758094D02*
X96264819Y-66758094D01*
X96264819Y-66758094D02*
X96264819Y-66377142D01*
X96264819Y-66377142D02*
X96312438Y-66281904D01*
X96312438Y-66281904D02*
X96360057Y-66234285D01*
X96360057Y-66234285D02*
X96455295Y-66186666D01*
X96455295Y-66186666D02*
X96598152Y-66186666D01*
X96598152Y-66186666D02*
X96693390Y-66234285D01*
X96693390Y-66234285D02*
X96741009Y-66281904D01*
X96741009Y-66281904D02*
X96788628Y-66377142D01*
X96788628Y-66377142D02*
X96788628Y-66758094D01*
X96264819Y-65853332D02*
X96264819Y-65234285D01*
X96264819Y-65234285D02*
X96645771Y-65567618D01*
X96645771Y-65567618D02*
X96645771Y-65424761D01*
X96645771Y-65424761D02*
X96693390Y-65329523D01*
X96693390Y-65329523D02*
X96741009Y-65281904D01*
X96741009Y-65281904D02*
X96836247Y-65234285D01*
X96836247Y-65234285D02*
X97074342Y-65234285D01*
X97074342Y-65234285D02*
X97169580Y-65281904D01*
X97169580Y-65281904D02*
X97217200Y-65329523D01*
X97217200Y-65329523D02*
X97264819Y-65424761D01*
X97264819Y-65424761D02*
X97264819Y-65710475D01*
X97264819Y-65710475D02*
X97217200Y-65805713D01*
X97217200Y-65805713D02*
X97169580Y-65853332D01*
X89123333Y-54394819D02*
X88790000Y-53918628D01*
X88551905Y-54394819D02*
X88551905Y-53394819D01*
X88551905Y-53394819D02*
X88932857Y-53394819D01*
X88932857Y-53394819D02*
X89028095Y-53442438D01*
X89028095Y-53442438D02*
X89075714Y-53490057D01*
X89075714Y-53490057D02*
X89123333Y-53585295D01*
X89123333Y-53585295D02*
X89123333Y-53728152D01*
X89123333Y-53728152D02*
X89075714Y-53823390D01*
X89075714Y-53823390D02*
X89028095Y-53871009D01*
X89028095Y-53871009D02*
X88932857Y-53918628D01*
X88932857Y-53918628D02*
X88551905Y-53918628D01*
X89504286Y-53490057D02*
X89551905Y-53442438D01*
X89551905Y-53442438D02*
X89647143Y-53394819D01*
X89647143Y-53394819D02*
X89885238Y-53394819D01*
X89885238Y-53394819D02*
X89980476Y-53442438D01*
X89980476Y-53442438D02*
X90028095Y-53490057D01*
X90028095Y-53490057D02*
X90075714Y-53585295D01*
X90075714Y-53585295D02*
X90075714Y-53680533D01*
X90075714Y-53680533D02*
X90028095Y-53823390D01*
X90028095Y-53823390D02*
X89456667Y-54394819D01*
X89456667Y-54394819D02*
X90075714Y-54394819D01*
X73320833Y-61634819D02*
X72987500Y-61158628D01*
X72749405Y-61634819D02*
X72749405Y-60634819D01*
X72749405Y-60634819D02*
X73130357Y-60634819D01*
X73130357Y-60634819D02*
X73225595Y-60682438D01*
X73225595Y-60682438D02*
X73273214Y-60730057D01*
X73273214Y-60730057D02*
X73320833Y-60825295D01*
X73320833Y-60825295D02*
X73320833Y-60968152D01*
X73320833Y-60968152D02*
X73273214Y-61063390D01*
X73273214Y-61063390D02*
X73225595Y-61111009D01*
X73225595Y-61111009D02*
X73130357Y-61158628D01*
X73130357Y-61158628D02*
X72749405Y-61158628D01*
X74273214Y-61634819D02*
X73701786Y-61634819D01*
X73987500Y-61634819D02*
X73987500Y-60634819D01*
X73987500Y-60634819D02*
X73892262Y-60777676D01*
X73892262Y-60777676D02*
X73797024Y-60872914D01*
X73797024Y-60872914D02*
X73701786Y-60920533D01*
X88584819Y-64538094D02*
X87584819Y-64538094D01*
X87584819Y-64538094D02*
X87584819Y-64299999D01*
X87584819Y-64299999D02*
X87632438Y-64157142D01*
X87632438Y-64157142D02*
X87727676Y-64061904D01*
X87727676Y-64061904D02*
X87822914Y-64014285D01*
X87822914Y-64014285D02*
X88013390Y-63966666D01*
X88013390Y-63966666D02*
X88156247Y-63966666D01*
X88156247Y-63966666D02*
X88346723Y-64014285D01*
X88346723Y-64014285D02*
X88441961Y-64061904D01*
X88441961Y-64061904D02*
X88537200Y-64157142D01*
X88537200Y-64157142D02*
X88584819Y-64299999D01*
X88584819Y-64299999D02*
X88584819Y-64538094D01*
X87584819Y-63633332D02*
X87584819Y-63014285D01*
X87584819Y-63014285D02*
X87965771Y-63347618D01*
X87965771Y-63347618D02*
X87965771Y-63204761D01*
X87965771Y-63204761D02*
X88013390Y-63109523D01*
X88013390Y-63109523D02*
X88061009Y-63061904D01*
X88061009Y-63061904D02*
X88156247Y-63014285D01*
X88156247Y-63014285D02*
X88394342Y-63014285D01*
X88394342Y-63014285D02*
X88489580Y-63061904D01*
X88489580Y-63061904D02*
X88537200Y-63109523D01*
X88537200Y-63109523D02*
X88584819Y-63204761D01*
X88584819Y-63204761D02*
X88584819Y-63490475D01*
X88584819Y-63490475D02*
X88537200Y-63585713D01*
X88537200Y-63585713D02*
X88489580Y-63633332D01*
X88904819Y-67871904D02*
X87904819Y-67871904D01*
X88904819Y-67300476D02*
X88333390Y-67729047D01*
X87904819Y-67300476D02*
X88476247Y-67871904D01*
X72881905Y-66964819D02*
X72881905Y-65964819D01*
X72881905Y-65964819D02*
X73120000Y-65964819D01*
X73120000Y-65964819D02*
X73262857Y-66012438D01*
X73262857Y-66012438D02*
X73358095Y-66107676D01*
X73358095Y-66107676D02*
X73405714Y-66202914D01*
X73405714Y-66202914D02*
X73453333Y-66393390D01*
X73453333Y-66393390D02*
X73453333Y-66536247D01*
X73453333Y-66536247D02*
X73405714Y-66726723D01*
X73405714Y-66726723D02*
X73358095Y-66821961D01*
X73358095Y-66821961D02*
X73262857Y-66917200D01*
X73262857Y-66917200D02*
X73120000Y-66964819D01*
X73120000Y-66964819D02*
X72881905Y-66964819D01*
X73834286Y-66060057D02*
X73881905Y-66012438D01*
X73881905Y-66012438D02*
X73977143Y-65964819D01*
X73977143Y-65964819D02*
X74215238Y-65964819D01*
X74215238Y-65964819D02*
X74310476Y-66012438D01*
X74310476Y-66012438D02*
X74358095Y-66060057D01*
X74358095Y-66060057D02*
X74405714Y-66155295D01*
X74405714Y-66155295D02*
X74405714Y-66250533D01*
X74405714Y-66250533D02*
X74358095Y-66393390D01*
X74358095Y-66393390D02*
X73786667Y-66964819D01*
X73786667Y-66964819D02*
X74405714Y-66964819D01*
X102133333Y-56399580D02*
X102085714Y-56447200D01*
X102085714Y-56447200D02*
X101942857Y-56494819D01*
X101942857Y-56494819D02*
X101847619Y-56494819D01*
X101847619Y-56494819D02*
X101704762Y-56447200D01*
X101704762Y-56447200D02*
X101609524Y-56351961D01*
X101609524Y-56351961D02*
X101561905Y-56256723D01*
X101561905Y-56256723D02*
X101514286Y-56066247D01*
X101514286Y-56066247D02*
X101514286Y-55923390D01*
X101514286Y-55923390D02*
X101561905Y-55732914D01*
X101561905Y-55732914D02*
X101609524Y-55637676D01*
X101609524Y-55637676D02*
X101704762Y-55542438D01*
X101704762Y-55542438D02*
X101847619Y-55494819D01*
X101847619Y-55494819D02*
X101942857Y-55494819D01*
X101942857Y-55494819D02*
X102085714Y-55542438D01*
X102085714Y-55542438D02*
X102133333Y-55590057D01*
X102514286Y-55590057D02*
X102561905Y-55542438D01*
X102561905Y-55542438D02*
X102657143Y-55494819D01*
X102657143Y-55494819D02*
X102895238Y-55494819D01*
X102895238Y-55494819D02*
X102990476Y-55542438D01*
X102990476Y-55542438D02*
X103038095Y-55590057D01*
X103038095Y-55590057D02*
X103085714Y-55685295D01*
X103085714Y-55685295D02*
X103085714Y-55780533D01*
X103085714Y-55780533D02*
X103038095Y-55923390D01*
X103038095Y-55923390D02*
X102466667Y-56494819D01*
X102466667Y-56494819D02*
X103085714Y-56494819D01*
X98283333Y-55709580D02*
X98235714Y-55757200D01*
X98235714Y-55757200D02*
X98092857Y-55804819D01*
X98092857Y-55804819D02*
X97997619Y-55804819D01*
X97997619Y-55804819D02*
X97854762Y-55757200D01*
X97854762Y-55757200D02*
X97759524Y-55661961D01*
X97759524Y-55661961D02*
X97711905Y-55566723D01*
X97711905Y-55566723D02*
X97664286Y-55376247D01*
X97664286Y-55376247D02*
X97664286Y-55233390D01*
X97664286Y-55233390D02*
X97711905Y-55042914D01*
X97711905Y-55042914D02*
X97759524Y-54947676D01*
X97759524Y-54947676D02*
X97854762Y-54852438D01*
X97854762Y-54852438D02*
X97997619Y-54804819D01*
X97997619Y-54804819D02*
X98092857Y-54804819D01*
X98092857Y-54804819D02*
X98235714Y-54852438D01*
X98235714Y-54852438D02*
X98283333Y-54900057D01*
X99235714Y-55804819D02*
X98664286Y-55804819D01*
X98950000Y-55804819D02*
X98950000Y-54804819D01*
X98950000Y-54804819D02*
X98854762Y-54947676D01*
X98854762Y-54947676D02*
X98759524Y-55042914D01*
X98759524Y-55042914D02*
X98664286Y-55090533D01*
D12*
X83155000Y-51220000D02*
X85755000Y-51220000D01*
X85755000Y-53880000D02*
X85755000Y-51220000D01*
X83155000Y-53880000D02*
X83155000Y-51220000D01*
X83155000Y-53880000D02*
X85755000Y-53880000D01*
X81885000Y-53880000D02*
X80555000Y-53880000D01*
X80555000Y-53880000D02*
X80555000Y-52550000D01*
X74600000Y-56865000D02*
X70540000Y-56865000D01*
X70540000Y-59135000D02*
X74600000Y-59135000D01*
X70540000Y-56865000D02*
X70540000Y-59135000D01*
X79555000Y-59130000D02*
X79555000Y-69410000D01*
X79555000Y-69410000D02*
X84855000Y-69410000D01*
X81205000Y-59130000D02*
X79555000Y-59130000D01*
X84855000Y-59130000D02*
X83205000Y-59130000D01*
X84855000Y-69410000D02*
X84855000Y-59130000D01*
X83205000Y-59130000D02*
G75*
G02*
X81205000Y-59130000I-1000000J0D01*
G01*
X99670000Y-69670000D02*
X101000000Y-69670000D01*
X99670000Y-71000000D02*
X99670000Y-69670000D01*
X99670000Y-72270000D02*
X99670000Y-72330000D01*
X99670000Y-72270000D02*
X102330000Y-72270000D01*
X99670000Y-72330000D02*
X102330000Y-72330000D01*
X102330000Y-72270000D02*
X102330000Y-72330000D01*
X65410000Y-61730000D02*
X66740000Y-61730000D01*
X65410000Y-63060000D02*
X65410000Y-61730000D01*
X65410000Y-64330000D02*
X65410000Y-64390000D01*
X65410000Y-64330000D02*
X68070000Y-64330000D01*
X65410000Y-64390000D02*
X68070000Y-64390000D01*
X68070000Y-64330000D02*
X68070000Y-64390000D01*
X80960000Y-73000000D02*
X81730000Y-73000000D01*
X81730000Y-71630000D02*
X81730000Y-74370000D01*
X81730000Y-74370000D02*
X88270000Y-74370000D01*
X88270000Y-71630000D02*
X81730000Y-71630000D01*
X88270000Y-74370000D02*
X88270000Y-71630000D01*
X89040000Y-73000000D02*
X88270000Y-73000000D01*
X94440000Y-61980000D02*
X94440000Y-62750000D01*
X95810000Y-62750000D02*
X93070000Y-62750000D01*
X93070000Y-62750000D02*
X93070000Y-69290000D01*
X95810000Y-69290000D02*
X95810000Y-62750000D01*
X93070000Y-69290000D02*
X95810000Y-69290000D01*
X94440000Y-70060000D02*
X94440000Y-69290000D01*
X85250000Y-56310000D02*
X86020000Y-56310000D01*
X86020000Y-54940000D02*
X86020000Y-57680000D01*
X86020000Y-57680000D02*
X92560000Y-57680000D01*
X92560000Y-54940000D02*
X86020000Y-54940000D01*
X92560000Y-57680000D02*
X92560000Y-54940000D01*
X93330000Y-56310000D02*
X92560000Y-56310000D01*
X72760436Y-62090000D02*
X74214564Y-62090000D01*
X72760436Y-63910000D02*
X74214564Y-63910000D01*
X90250000Y-66570000D02*
X90250000Y-65920000D01*
X89130000Y-65920000D02*
X91370000Y-65920000D01*
X91370000Y-65920000D02*
X91370000Y-61680000D01*
X89130000Y-65320000D02*
X91370000Y-65320000D01*
X89130000Y-65200000D02*
X91370000Y-65200000D01*
X89130000Y-65080000D02*
X91370000Y-65080000D01*
X89130000Y-61680000D02*
X89130000Y-65920000D01*
X91370000Y-61680000D02*
X89130000Y-61680000D01*
X90250000Y-61030000D02*
X90250000Y-61680000D01*
X72105000Y-72975000D02*
X75195000Y-72975000D01*
X72105170Y-72975000D02*
G75*
G02*
X73649952Y-67425000I1544830J2560000D01*
G01*
X73650048Y-67425000D02*
G75*
G02*
X75194830Y-72975000I-48J-2990000D01*
G01*
X76150000Y-70415000D02*
G75*
G02*
X71150000Y-70415000I-2500000J0D01*
G01*
X71150000Y-70415000D02*
G75*
G02*
X76150000Y-70415000I2500000J0D01*
G01*
X96820354Y-59415000D02*
X97820354Y-59415000D01*
X97320354Y-58915000D02*
X97320354Y-59915000D01*
X102300000Y-57210000D02*
X102300000Y-67370000D01*
X102340000Y-57210000D02*
X102340000Y-67370000D01*
X102380000Y-57210000D02*
X102380000Y-67370000D01*
X102420000Y-57211000D02*
X102420000Y-67369000D01*
X102460000Y-57212000D02*
X102460000Y-67368000D01*
X102500000Y-57213000D02*
X102500000Y-67367000D01*
X102540000Y-57215000D02*
X102540000Y-61250000D01*
X102540000Y-63330000D02*
X102540000Y-67365000D01*
X102580000Y-57217000D02*
X102580000Y-61250000D01*
X102580000Y-63330000D02*
X102580000Y-67363000D01*
X102620000Y-57220000D02*
X102620000Y-61250000D01*
X102620000Y-63330000D02*
X102620000Y-67360000D01*
X102660000Y-57222000D02*
X102660000Y-61250000D01*
X102660000Y-63330000D02*
X102660000Y-67358000D01*
X102700000Y-57225000D02*
X102700000Y-61250000D01*
X102700000Y-63330000D02*
X102700000Y-67355000D01*
X102740000Y-57228000D02*
X102740000Y-61250000D01*
X102740000Y-63330000D02*
X102740000Y-67352000D01*
X102780000Y-57232000D02*
X102780000Y-61250000D01*
X102780000Y-63330000D02*
X102780000Y-67348000D01*
X102820000Y-57236000D02*
X102820000Y-61250000D01*
X102820000Y-63330000D02*
X102820000Y-67344000D01*
X102860000Y-57240000D02*
X102860000Y-61250000D01*
X102860000Y-63330000D02*
X102860000Y-67340000D01*
X102900000Y-57245000D02*
X102900000Y-61250000D01*
X102900000Y-63330000D02*
X102900000Y-67335000D01*
X102940000Y-57250000D02*
X102940000Y-61250000D01*
X102940000Y-63330000D02*
X102940000Y-67330000D01*
X102980000Y-57255000D02*
X102980000Y-61250000D01*
X102980000Y-63330000D02*
X102980000Y-67325000D01*
X103021000Y-57260000D02*
X103021000Y-61250000D01*
X103021000Y-63330000D02*
X103021000Y-67320000D01*
X103061000Y-57266000D02*
X103061000Y-61250000D01*
X103061000Y-63330000D02*
X103061000Y-67314000D01*
X103101000Y-57272000D02*
X103101000Y-61250000D01*
X103101000Y-63330000D02*
X103101000Y-67308000D01*
X103141000Y-57279000D02*
X103141000Y-61250000D01*
X103141000Y-63330000D02*
X103141000Y-67301000D01*
X103181000Y-57286000D02*
X103181000Y-61250000D01*
X103181000Y-63330000D02*
X103181000Y-67294000D01*
X103221000Y-57293000D02*
X103221000Y-61250000D01*
X103221000Y-63330000D02*
X103221000Y-67287000D01*
X103261000Y-57300000D02*
X103261000Y-61250000D01*
X103261000Y-63330000D02*
X103261000Y-67280000D01*
X103301000Y-57308000D02*
X103301000Y-61250000D01*
X103301000Y-63330000D02*
X103301000Y-67272000D01*
X103341000Y-57316000D02*
X103341000Y-61250000D01*
X103341000Y-63330000D02*
X103341000Y-67264000D01*
X103381000Y-57325000D02*
X103381000Y-61250000D01*
X103381000Y-63330000D02*
X103381000Y-67255000D01*
X103421000Y-57334000D02*
X103421000Y-61250000D01*
X103421000Y-63330000D02*
X103421000Y-67246000D01*
X103461000Y-57343000D02*
X103461000Y-61250000D01*
X103461000Y-63330000D02*
X103461000Y-67237000D01*
X103501000Y-57352000D02*
X103501000Y-61250000D01*
X103501000Y-63330000D02*
X103501000Y-67228000D01*
X103541000Y-57362000D02*
X103541000Y-61250000D01*
X103541000Y-63330000D02*
X103541000Y-67218000D01*
X103581000Y-57372000D02*
X103581000Y-61250000D01*
X103581000Y-63330000D02*
X103581000Y-67208000D01*
X103621000Y-57383000D02*
X103621000Y-61250000D01*
X103621000Y-63330000D02*
X103621000Y-67197000D01*
X103661000Y-57393000D02*
X103661000Y-61250000D01*
X103661000Y-63330000D02*
X103661000Y-67187000D01*
X103701000Y-57405000D02*
X103701000Y-61250000D01*
X103701000Y-63330000D02*
X103701000Y-67175000D01*
X103741000Y-57416000D02*
X103741000Y-61250000D01*
X103741000Y-63330000D02*
X103741000Y-67164000D01*
X103781000Y-57428000D02*
X103781000Y-61250000D01*
X103781000Y-63330000D02*
X103781000Y-67152000D01*
X103821000Y-57440000D02*
X103821000Y-61250000D01*
X103821000Y-63330000D02*
X103821000Y-67140000D01*
X103861000Y-57453000D02*
X103861000Y-61250000D01*
X103861000Y-63330000D02*
X103861000Y-67127000D01*
X103901000Y-57466000D02*
X103901000Y-61250000D01*
X103901000Y-63330000D02*
X103901000Y-67114000D01*
X103941000Y-57479000D02*
X103941000Y-61250000D01*
X103941000Y-63330000D02*
X103941000Y-67101000D01*
X103981000Y-57493000D02*
X103981000Y-61250000D01*
X103981000Y-63330000D02*
X103981000Y-67087000D01*
X104021000Y-57507000D02*
X104021000Y-61250000D01*
X104021000Y-63330000D02*
X104021000Y-67073000D01*
X104061000Y-57522000D02*
X104061000Y-61250000D01*
X104061000Y-63330000D02*
X104061000Y-67058000D01*
X104101000Y-57536000D02*
X104101000Y-61250000D01*
X104101000Y-63330000D02*
X104101000Y-67044000D01*
X104141000Y-57552000D02*
X104141000Y-61250000D01*
X104141000Y-63330000D02*
X104141000Y-67028000D01*
X104181000Y-57567000D02*
X104181000Y-61250000D01*
X104181000Y-63330000D02*
X104181000Y-67013000D01*
X104221000Y-57583000D02*
X104221000Y-61250000D01*
X104221000Y-63330000D02*
X104221000Y-66997000D01*
X104261000Y-57600000D02*
X104261000Y-61250000D01*
X104261000Y-63330000D02*
X104261000Y-66980000D01*
X104301000Y-57616000D02*
X104301000Y-61250000D01*
X104301000Y-63330000D02*
X104301000Y-66964000D01*
X104341000Y-57633000D02*
X104341000Y-61250000D01*
X104341000Y-63330000D02*
X104341000Y-66947000D01*
X104381000Y-57651000D02*
X104381000Y-61250000D01*
X104381000Y-63330000D02*
X104381000Y-66929000D01*
X104421000Y-57669000D02*
X104421000Y-61250000D01*
X104421000Y-63330000D02*
X104421000Y-66911000D01*
X104461000Y-57687000D02*
X104461000Y-61250000D01*
X104461000Y-63330000D02*
X104461000Y-66893000D01*
X104501000Y-57706000D02*
X104501000Y-61250000D01*
X104501000Y-63330000D02*
X104501000Y-66874000D01*
X104541000Y-57726000D02*
X104541000Y-61250000D01*
X104541000Y-63330000D02*
X104541000Y-66854000D01*
X104581000Y-57745000D02*
X104581000Y-61250000D01*
X104581000Y-63330000D02*
X104581000Y-66835000D01*
X104621000Y-57765000D02*
X104621000Y-66815000D01*
X104661000Y-57786000D02*
X104661000Y-66794000D01*
X104701000Y-57807000D02*
X104701000Y-66773000D01*
X104741000Y-57828000D02*
X104741000Y-66752000D01*
X104781000Y-57850000D02*
X104781000Y-66730000D01*
X104821000Y-57873000D02*
X104821000Y-66707000D01*
X104861000Y-57895000D02*
X104861000Y-66685000D01*
X104901000Y-57919000D02*
X104901000Y-66661000D01*
X104941000Y-57943000D02*
X104941000Y-66637000D01*
X104981000Y-57967000D02*
X104981000Y-66613000D01*
X105021000Y-57992000D02*
X105021000Y-66588000D01*
X105061000Y-58017000D02*
X105061000Y-66563000D01*
X105101000Y-58043000D02*
X105101000Y-66537000D01*
X105141000Y-58069000D02*
X105141000Y-66511000D01*
X105181000Y-58096000D02*
X105181000Y-66484000D01*
X105221000Y-58124000D02*
X105221000Y-66456000D01*
X105261000Y-58152000D02*
X105261000Y-66428000D01*
X105301000Y-58180000D02*
X105301000Y-66400000D01*
X105341000Y-58210000D02*
X105341000Y-66370000D01*
X105381000Y-58240000D02*
X105381000Y-66340000D01*
X105421000Y-58270000D02*
X105421000Y-66310000D01*
X105461000Y-58301000D02*
X105461000Y-66279000D01*
X105501000Y-58333000D02*
X105501000Y-66247000D01*
X105541000Y-58365000D02*
X105541000Y-66215000D01*
X105581000Y-58398000D02*
X105581000Y-66182000D01*
X105621000Y-58432000D02*
X105621000Y-66148000D01*
X105661000Y-58466000D02*
X105661000Y-66114000D01*
X105701000Y-58501000D02*
X105701000Y-66079000D01*
X105741000Y-58537000D02*
X105741000Y-66043000D01*
X105781000Y-58574000D02*
X105781000Y-66006000D01*
X105821000Y-58611000D02*
X105821000Y-65969000D01*
X105861000Y-58650000D02*
X105861000Y-65930000D01*
X105901000Y-58689000D02*
X105901000Y-65891000D01*
X105941000Y-58729000D02*
X105941000Y-65851000D01*
X105981000Y-58770000D02*
X105981000Y-65810000D01*
X106021000Y-58812000D02*
X106021000Y-65768000D01*
X106061000Y-58854000D02*
X106061000Y-65726000D01*
X106101000Y-58898000D02*
X106101000Y-65682000D01*
X106141000Y-58943000D02*
X106141000Y-65637000D01*
X106181000Y-58989000D02*
X106181000Y-65591000D01*
X106221000Y-59036000D02*
X106221000Y-65544000D01*
X106261000Y-59084000D02*
X106261000Y-65496000D01*
X106301000Y-59134000D02*
X106301000Y-65446000D01*
X106341000Y-59184000D02*
X106341000Y-65396000D01*
X106381000Y-59236000D02*
X106381000Y-65344000D01*
X106421000Y-59290000D02*
X106421000Y-65290000D01*
X106461000Y-59345000D02*
X106461000Y-65235000D01*
X106501000Y-59401000D02*
X106501000Y-65179000D01*
X106541000Y-59460000D02*
X106541000Y-65120000D01*
X106581000Y-59520000D02*
X106581000Y-65060000D01*
X106621000Y-59581000D02*
X106621000Y-64999000D01*
X106661000Y-59645000D02*
X106661000Y-64935000D01*
X106701000Y-59711000D02*
X106701000Y-64869000D01*
X106741000Y-59780000D02*
X106741000Y-64800000D01*
X106781000Y-59851000D02*
X106781000Y-64729000D01*
X106821000Y-59925000D02*
X106821000Y-64655000D01*
X106861000Y-60001000D02*
X106861000Y-64579000D01*
X106901000Y-60081000D02*
X106901000Y-64499000D01*
X106941000Y-60165000D02*
X106941000Y-64415000D01*
X106981000Y-60253000D02*
X106981000Y-64327000D01*
X107021000Y-60346000D02*
X107021000Y-64234000D01*
X107061000Y-60444000D02*
X107061000Y-64136000D01*
X107101000Y-60548000D02*
X107101000Y-64032000D01*
X107141000Y-60660000D02*
X107141000Y-63920000D01*
X107181000Y-60780000D02*
X107181000Y-63800000D01*
X107221000Y-60912000D02*
X107221000Y-63668000D01*
X107261000Y-61060000D02*
X107261000Y-63520000D01*
X107301000Y-61228000D02*
X107301000Y-63352000D01*
X107341000Y-61428000D02*
X107341000Y-63152000D01*
X107381000Y-61691000D02*
X107381000Y-62889000D01*
X107420000Y-62290000D02*
G75*
G02*
X97180000Y-62290000I-5120000J0D01*
G01*
X97180000Y-62290000D02*
G75*
G02*
X107420000Y-62290000I5120000J0D01*
G01*
X94610000Y-51020000D02*
X94610000Y-54260000D01*
X94610000Y-51020000D02*
X102050000Y-51020000D01*
X94610000Y-54260000D02*
X102050000Y-54260000D01*
X102050000Y-51020000D02*
X102050000Y-54260000D01*
M02*
